<svg width="155" height="31" viewBox="0 0 155 31" fill="none" xmlns="http://www.w3.org/2000/svg">
<path d="M0.739 0.899998H6.085V19.644H17.668V24H0.739V0.899998ZM29.6011 24.264C27.7311 24.264 26.0481 23.879 24.5521 23.109C23.0781 22.317 21.9231 21.228 21.0871 19.842C20.2511 18.456 19.8331 16.883 19.8331 15.123C19.8331 13.363 20.2511 11.79 21.0871 10.404C21.9231 9.018 23.0781 7.94 24.5521 7.17C26.0481 6.378 27.7311 5.982 29.6011 5.982C31.4711 5.982 33.1431 6.378 34.6171 7.17C36.0911 7.94 37.2461 9.018 38.0821 10.404C38.9181 11.79 39.3361 13.363 39.3361 15.123C39.3361 16.883 38.9181 18.456 38.0821 19.842C37.2461 21.228 36.0911 22.317 34.6171 23.109C33.1431 23.879 31.4711 24.264 29.6011 24.264ZM29.6011 20.04C30.9211 20.04 31.9991 19.6 32.8351 18.72C33.6931 17.818 34.1221 16.619 34.1221 15.123C34.1221 13.627 33.6931 12.439 32.8351 11.559C31.9991 10.657 30.9211 10.206 29.6011 10.206C28.2811 10.206 27.1921 10.657 26.3341 11.559C25.4761 12.439 25.0471 13.627 25.0471 15.123C25.0471 16.619 25.4761 17.818 26.3341 18.72C27.1921 19.6 28.2811 20.04 29.6011 20.04ZM62.0821 6.246V21.03C62.0821 24.286 61.2351 26.706 59.5411 28.29C57.8471 29.874 55.3721 30.666 52.1161 30.666C50.4001 30.666 48.7721 30.457 47.2321 30.039C45.6921 29.621 44.4161 29.016 43.4041 28.224L45.4501 24.528C46.1981 25.144 47.1441 25.628 48.2881 25.98C49.4321 26.354 50.5761 26.541 51.7201 26.541C53.5021 26.541 54.8111 26.134 55.6471 25.32C56.5051 24.528 56.9341 23.318 56.9341 21.69V20.931C55.5921 22.405 53.7221 23.142 51.3241 23.142C49.6961 23.142 48.2001 22.79 46.8361 22.086C45.4941 21.36 44.4271 20.348 43.6351 19.05C42.8431 17.752 42.4471 16.256 42.4471 14.562C42.4471 12.868 42.8431 11.372 43.6351 10.074C44.4271 8.776 45.4941 7.775 46.8361 7.071C48.2001 6.345 49.6961 5.982 51.3241 5.982C53.8981 5.982 55.8561 6.829 57.1981 8.523V6.246H62.0821ZM52.3471 18.918C53.7111 18.918 54.8221 18.522 55.6801 17.73C56.5601 16.916 57.0001 15.86 57.0001 14.562C57.0001 13.264 56.5601 12.219 55.6801 11.427C54.8221 10.613 53.7111 10.206 52.3471 10.206C50.9831 10.206 49.8611 10.613 48.9811 11.427C48.1011 12.219 47.6611 13.264 47.6611 14.562C47.6611 15.86 48.1011 16.916 48.9811 17.73C49.8611 18.522 50.9831 18.918 52.3471 18.918ZM76.3116 24.264C74.4416 24.264 72.7586 23.879 71.2626 23.109C69.7886 22.317 68.6336 21.228 67.7976 19.842C66.9616 18.456 66.5436 16.883 66.5436 15.123C66.5436 13.363 66.9616 11.79 67.7976 10.404C68.6336 9.018 69.7886 7.94 71.2626 7.17C72.7586 6.378 74.4416 5.982 76.3116 5.982C78.1816 5.982 79.8536 6.378 81.3276 7.17C82.8016 7.94 83.9566 9.018 84.7926 10.404C85.6286 11.79 86.0466 13.363 86.0466 15.123C86.0466 16.883 85.6286 18.456 84.7926 19.842C83.9566 21.228 82.8016 22.317 81.3276 23.109C79.8536 23.879 78.1816 24.264 76.3116 24.264ZM76.3116 20.04C77.6316 20.04 78.7096 19.6 79.5456 18.72C80.4036 17.818 80.8326 16.619 80.8326 15.123C80.8326 13.627 80.4036 12.439 79.5456 11.559C78.7096 10.657 77.6316 10.206 76.3116 10.206C74.9916 10.206 73.9026 10.657 73.0446 11.559C72.1866 12.439 71.7576 13.627 71.7576 15.123C71.7576 16.619 72.1866 17.818 73.0446 18.72C73.9026 19.6 74.9916 20.04 76.3116 20.04ZM91.8636 0.899998H101.269C103.711 0.899998 105.867 1.395 107.737 2.385C109.607 3.353 111.059 4.717 112.093 6.477C113.127 8.215 113.644 10.206 113.644 12.45C113.644 14.694 113.127 16.696 112.093 18.456C111.059 20.194 109.607 21.558 107.737 22.548C105.867 23.516 103.711 24 101.269 24H91.8636V0.899998ZM101.137 21.888C103.161 21.888 104.932 21.492 106.45 20.7C107.968 19.886 109.145 18.775 109.981 17.367C110.817 15.937 111.235 14.298 111.235 12.45C111.235 10.602 110.817 8.974 109.981 7.566C109.145 6.136 107.968 5.025 106.45 4.233C104.932 3.419 103.161 3.012 101.137 3.012H94.3056V21.888H101.137ZM134.736 16.047H120.216C120.348 17.851 121.041 19.314 122.295 20.436C123.549 21.536 125.133 22.086 127.047 22.086C128.125 22.086 129.115 21.899 130.017 21.525C130.919 21.129 131.7 20.557 132.36 19.809L133.68 21.327C132.91 22.251 131.942 22.955 130.776 23.439C129.632 23.923 128.367 24.165 126.981 24.165C125.199 24.165 123.615 23.791 122.229 23.043C120.865 22.273 119.798 21.217 119.028 19.875C118.258 18.533 117.873 17.015 117.873 15.321C117.873 13.627 118.236 12.109 118.962 10.767C119.71 9.425 120.722 8.38 121.998 7.632C123.296 6.884 124.748 6.51 126.354 6.51C127.96 6.51 129.401 6.884 130.677 7.632C131.953 8.38 132.954 9.425 133.68 10.767C134.406 12.087 134.769 13.605 134.769 15.321L134.736 16.047ZM126.354 8.523C124.682 8.523 123.274 9.062 122.13 10.14C121.008 11.196 120.37 12.582 120.216 14.298H132.525C132.371 12.582 131.722 11.196 130.578 10.14C129.456 9.062 128.048 8.523 126.354 8.523ZM154.792 6.642L147.07 24H144.661L136.972 6.642H139.414L145.915 21.426L152.482 6.642H154.792Z" fill="white"/>
</svg>
