<svg width="20" height="20" viewBox="0 0 20 20" fill="none" xmlns="http://www.w3.org/2000/svg">
<path d="M8.45605 11.544C9.2752 12.3631 10.3862 12.8232 11.5446 12.8232C12.703 12.8232 13.8139 12.3631 14.6331 11.544L17.7211 8.45601C18.5272 7.63421 18.9764 6.52739 18.9708 5.3762C18.9653 4.22502 18.5056 3.12255 17.6915 2.30853C16.8775 1.49451 15.7751 1.03475 14.6239 1.02923C13.4727 1.0237 12.3659 1.47285 11.5441 2.27901L10.0001 3.82301M11.5441 8.45601C10.7249 7.63725 9.61421 7.1773 8.45605 7.1773C7.2979 7.1773 6.18716 7.63725 5.36805 8.45601L2.27905 11.544C1.45993 12.3631 0.999756 13.4741 0.999756 14.6325C0.999756 15.7909 1.45993 16.9019 2.27905 17.721C3.09818 18.5401 4.20914 19.0003 5.36755 19.0003C6.52597 19.0003 7.63693 18.5401 8.45605 17.721L10.0001 16.177L11.5441 8.45601Z" stroke="black" stroke-width="2" stroke-linecap="round" stroke-linejoin="round"/>
</svg>
